<?xml version="1.0" standalone="no"?>
<!DOCTYPE svg PUBLIC "-//W3C//DTD SVG 20010904//EN"
 "http://www.w3.org/TR/2001/REC-SVG-20010904/DTD/svg10.dtd">
<svg version="1.0" xmlns="http://www.w3.org/2000/svg"
 width="1820.000000pt" height="829.000000pt" viewBox="0 0 1820.000000 829.000000"
 preserveAspectRatio="xMidYMid meet">

<g transform="translate(0.000000,829.000000) scale(0.100000,-0.100000)"
fill="#000000" stroke="none">
<path d="M7389 8266 c-78 -28 -139 -96 -168 -187 l-12 -36 -447 -7 c-1046 -15
-1091 -16 -1119 -40 -24 -21 -25 -23 -33 -271 -5 -138 -9 -296 -10 -352 l0
-102 -88 -60 c-48 -32 -122 -86 -165 -120 l-77 -61 0 159 0 159 37 13 c22 7
62 36 93 68 96 97 116 220 52 334 -32 58 -99 110 -163 127 -81 22 -204 -21
-265 -92 -114 -136 -85 -345 60 -423 l36 -20 0 -233 0 -233 -61 -67 c-34 -37
-68 -73 -74 -81 -10 -10 -20 -11 -47 -2 l-35 11 -6 338 c-4 185 -7 432 -7 548
0 191 -2 214 -18 235 -25 30 -75 30 -105 0 l-22 -22 -3 -538 -3 -539 -22 -6
c-12 -3 -34 -6 -49 -6 -20 0 -29 -6 -33 -22 l-6 -23 -387 8 c-213 4 -406 4
-430 1 -75 -10 -75 -10 -71 -352 2 -163 0 -303 -4 -310 -5 -7 -30 -24 -57 -37
l-49 -25 -3 301 -3 301 -29 25 -29 25 -294 -3 -293 -3 -29 46 c-145 229 -455
129 -454 -147 1 -115 52 -204 144 -250 130 -66 287 2 334 146 l17 49 236 0
237 0 -3 -312 -3 -312 -58 -61 c-149 -156 -234 -342 -262 -576 -33 -270 72
-580 278 -815 l53 -61 0 -390 c0 -402 4 -444 40 -463 32 -17 85 -12 106 11 18
20 19 43 22 355 1 184 5 334 7 334 3 0 29 -16 59 -35 l54 -34 6 -893 c3 -491
7 -1387 9 -1990 2 -727 6 -1101 13 -1108 10 -10 978 2 1292 16 116 5 134 8
143 25 7 13 6 26 -2 40 -11 22 -13 22 -312 17 l-300 -5 7 671 c3 369 9 1210
12 1869 l7 1197 770 -2 770 -3 223 -315 c123 -173 228 -327 233 -342 20 -57
10 -55 616 -72 308 -9 579 -16 602 -16 39 0 44 -3 57 -33 55 -134 224 -196
354 -131 250 124 168 507 -108 508 -106 0 -206 -65 -246 -160 l-14 -34 -98 0
c-158 1 -1032 27 -1036 31 -19 23 -396 561 -396 565 0 3 339 2 753 -1 413 -3
800 -6 858 -6 247 -2 492 110 681 310 130 137 217 288 274 476 26 84 28 103
28 275 1 147 -3 198 -16 248 -55 198 -165 371 -308 484 -105 84 -284 158 -380
158 -27 0 -51 3 -54 8 -2 4 -12 64 -21 132 -68 527 -291 938 -660 1213 -174
131 -438 240 -670 278 -113 19 -406 16 -526 -4 -135 -23 -314 -77 -453 -136
l-118 -50 7 257 c4 141 9 259 10 260 4 4 990 21 1271 22 l192 0 12 -29 c16
-39 84 -106 129 -127 52 -25 145 -23 197 4 61 31 121 105 140 170 64 219 -121
428 -317 358z m133 -156 c36 -28 51 -72 46 -132 -5 -44 -11 -57 -42 -85 -40
-37 -63 -40 -107 -17 -75 38 -79 188 -7 238 31 22 80 20 110 -4z m-2238 -381
c53 -25 70 -116 31 -175 -37 -56 -115 -76 -168 -41 -90 58 -30 227 80 227 18
0 43 -5 57 -11z m1575 -374 c575 -112 996 -558 1115 -1180 18 -94 36 -255 36
-320 0 -52 20 -99 47 -110 10 -4 52 -9 95 -11 190 -7 298 -53 425 -181 138
-139 204 -306 204 -523 0 -344 -200 -668 -505 -818 -45 -22 -99 -45 -121 -51
-28 -8 -333 -11 -985 -11 l-945 0 -269 380 c-147 209 -276 385 -286 390 -11 6
-165 10 -383 10 l-365 0 -6 163 c-10 291 -18 1469 -9 1465 97 -48 126 -46 178
15 l35 42 0 -707 c0 -497 3 -714 11 -731 11 -25 47 -47 75 -47 8 0 26 11 39
25 l25 24 0 805 0 804 98 84 c114 99 211 173 217 166 3 -3 -6 -373 -20 -824
-32 -1083 -32 -1059 -10 -1084 12 -13 31 -20 56 -20 74 0 68 -60 100 992 15
519 29 964 29 990 0 44 2 47 43 71 164 96 413 173 682 211 62 9 313 -3 394
-19z m-4071 -701 c87 -61 57 -235 -40 -234 -58 1 -100 53 -100 123 0 100 73
158 140 111z m1963 -359 c3 -160 7 -438 8 -620 0 -181 4 -442 8 -579 l6 -249
28 -31 27 -31 386 -5 386 -5 162 -230 c90 -126 189 -267 221 -313 l58 -82
-701 2 -701 3 2 610 c1 336 4 880 8 1210 l6 600 30 6 c63 14 59 31 66 -286z
m-999 -1192 c3 -412 4 -750 2 -752 -2 -2 -28 17 -58 42 -49 42 -54 52 -59 94
-2 27 -5 328 -6 670 l-1 622 52 36 c29 19 55 35 59 35 3 0 8 -336 11 -747z
m-282 16 c0 -267 -4 -459 -9 -459 -15 0 -99 180 -116 249 -43 168 -39 332 11
481 28 82 93 202 106 194 4 -3 8 -212 8 -465z m4707 -1710 c67 -25 96 -85 73
-154 -24 -74 -126 -100 -180 -47 -59 59 -43 158 30 194 41 21 41 21 77 7z"/>
<path d="M6441 7044 c-39 -20 -65 -71 -55 -110 10 -40 58 -64 113 -57 94 11
182 -12 334 -88 204 -102 296 -160 384 -243 86 -81 107 -92 148 -76 68 26 74
94 16 167 -49 62 -55 67 -188 156 -287 192 -638 309 -752 251z"/>
<path d="M7462 6287 c-27 -29 -27 -48 -1 -140 14 -50 22 -114 26 -212 6 -145
16 -185 52 -205 38 -20 78 -12 105 21 22 26 26 40 26 92 -1 188 -43 392 -91
440 -35 35 -86 37 -117 4z"/>
<path d="M10645 6486 c-586 -98 -1022 -518 -1151 -1107 -27 -119 -27 -456 -1
-579 118 -553 520 -993 1047 -1146 271 -79 578 -74 837 11 538 178 901 643
954 1222 37 406 -107 821 -395 1139 -197 217 -482 380 -781 445 -118 26 -395
34 -510 15z m532 -110 c267 -67 477 -190 673 -393 195 -200 322 -443 377 -720
27 -139 25 -398 -5 -532 -68 -303 -217 -555 -438 -740 -88 -73 -215 -156 -286
-185 l-33 -14 -478 1282 c-262 705 -477 1285 -477 1288 0 6 86 27 170 42 14 2
108 3 210 1 159 -2 199 -6 287 -29z"/>
<path d="M15586 6458 c-12 -20 -12 -195 0 -1338 8 -723 13 -1380 12 -1459 -2
-123 0 -145 13 -154 27 -17 1367 16 1450 36 261 61 518 205 709 397 204 204
331 438 392 723 28 134 31 385 5 527 -61 329 -229 621 -497 863 -254 230 -664
399 -965 399 -44 0 -294 7 -555 14 -603 18 -547 18 -564 -8z m1235 -102 c461
-75 858 -339 1085 -722 80 -135 136 -278 171 -436 25 -116 25 -400 0 -515 -56
-261 -165 -467 -346 -655 -185 -193 -387 -315 -646 -388 -91 -25 -119 -28
-300 -33 l-200 -4 -45 26 c-24 15 -58 47 -75 71 l-30 45 5 1262 5 1262 30 31
c42 44 61 53 135 60 103 11 120 11 211 -4z"/>
<path d="M13211 6414 l-34 -15 6 -412 c4 -227 10 -720 13 -1097 6 -681 6 -686
30 -780 61 -241 213 -430 429 -535 136 -66 283 -92 419 -75 195 24 323 86 463
226 80 80 97 103 141 195 84 174 80 108 87 1360 6 1024 6 1107 -10 1122 -20
20 -35 21 -58 5 -15 -12 -17 -105 -20 -1133 -4 -1246 1 -1159 -73 -1310 -70
-143 -175 -246 -320 -316 -111 -53 -151 -58 -191 -25 -17 14 -36 40 -43 57
-10 24 -12 292 -8 1357 6 1403 7 1369 -37 1386 -9 3 -184 6 -388 5 -306 0
-378 -3 -406 -15z"/>
<path d="M1210 6360 c-543 -96 -998 -495 -1149 -1007 -57 -195 -72 -443 -37
-633 70 -386 308 -740 634 -941 40 -24 72 -47 72 -51 0 -4 -20 -47 -44 -95
-93 -187 -104 -258 -49 -309 33 -31 99 -33 136 -4 14 11 39 55 57 97 35 85 87
191 102 210 7 9 23 7 64 -7 146 -51 249 -65 464 -65 178 0 219 3 309 23 305
69 532 192 750 409 l123 123 38 -30 c150 -119 290 -338 290 -454 0 -73 -65
-180 -339 -560 -51 -71 -208 -289 -349 -485 -141 -196 -337 -468 -436 -606
-98 -137 -234 -326 -301 -420 -67 -93 -182 -253 -255 -355 -147 -204 -230
-320 -369 -515 -52 -71 -108 -146 -126 -165 -18 -19 -51 -63 -73 -98 -36 -57
-41 -72 -47 -148 -9 -107 -2 -169 22 -202 36 -48 60 -50 439 -41 192 5 565 13
829 18 1000 21 1370 33 1395 45 l25 11 0 345 0 345 -152 3 -152 3 -18 -33
c-14 -27 -18 -63 -21 -186 -3 -105 -7 -154 -15 -157 -7 -2 -301 -6 -654 -9
-452 -4 -643 -3 -643 4 0 6 19 39 43 73 54 77 362 512 415 587 21 30 106 150
187 265 82 116 167 236 189 267 23 31 102 143 176 249 74 105 153 215 175 243
22 28 57 76 77 107 34 50 66 89 117 144 39 43 108 156 135 221 15 38 32 77 37
87 5 10 14 48 19 85 5 37 17 105 26 152 18 95 14 371 -7 490 -37 210 -176 503
-324 680 -210 252 -460 397 -770 445 -131 21 -336 16 -455 -11 -41 -9 -81 -17
-88 -18 -9 -1 -130 298 -348 859 -184 473 -334 863 -334 866 0 9 131 45 225
63 194 36 401 29 591 -19 70 -18 101 -22 115 -14 22 11 25 51 7 67 -17 13
-152 47 -245 61 -113 17 -362 12 -483 -9z m1065 -2078 c129 -34 285 -102 285
-124 0 -5 -46 -55 -102 -111 -114 -114 -253 -213 -390 -277 -94 -44 -103 -46
-111 -27 -3 6 -49 125 -102 262 -53 138 -99 253 -101 257 -5 8 54 25 133 38
89 14 306 4 388 -18z"/>
<path d="M5384 3770 c-544 -5 -573 -6 -593 -24 -29 -26 -28 -79 2 -107 l22
-21 600 3 600 4 1 -420 c1 -231 -1 -439 -3 -463 -4 -37 -10 -44 -41 -59 -93
-44 -155 -146 -155 -258 -1 -118 50 -205 148 -251 94 -45 196 -28 277 44 66
60 90 110 96 198 7 117 -39 212 -128 262 l-49 27 6 500 6 500 -22 27 c-26 33
-78 49 -146 46 -27 -2 -307 -5 -621 -8z m772 -1244 c29 -29 34 -41 34 -80 0
-85 -51 -146 -122 -146 -72 0 -120 79 -98 159 28 99 121 132 186 67z"/>
<path d="M9371 3160 c-202 -14 -474 -50 -498 -66 -21 -13 -23 -21 -23 -117 2
-405 29 -2739 32 -2742 5 -5 232 -50 338 -67 131 -20 587 -17 715 5 217 38
378 88 537 167 128 64 205 117 300 208 279 266 314 609 94 916 -43 60 -169
187 -236 238 l-34 27 28 38 c191 260 281 464 293 663 22 386 -281 634 -877
716 -130 18 -503 26 -669 14z m688 -106 c387 -56 632 -188 729 -392 33 -70 37
-86 40 -179 4 -87 0 -115 -22 -192 -52 -184 -227 -475 -316 -527 -44 -27 -41
-60 8 -81 20 -8 74 -47 120 -85 131 -111 218 -225 269 -353 23 -61 27 -84 27
-185 1 -182 -45 -289 -184 -431 -166 -169 -417 -290 -738 -355 -152 -31 -179
-27 -225 26 l-34 40 -6 332 c-4 182 -7 770 -7 1306 l0 975 41 38 c52 48 114
79 158 79 18 0 81 -7 140 -16z"/>
<path d="M6841 3074 c-12 -15 -21 -30 -21 -35 0 -4 -123 -328 -274 -721 -151
-392 -394 -1025 -540 -1407 -162 -422 -266 -704 -264 -720 3 -22 8 -26 37 -26
l35 0 250 651 c158 411 261 665 279 688 54 70 129 87 173 39 14 -15 41 -61 60
-102 19 -42 43 -92 53 -111 10 -19 118 -286 240 -592 123 -306 229 -562 237
-569 15 -12 44 -11 854 34 29 2 35 6 33 23 -1 11 -243 644 -538 1406 -294 762
-535 1397 -535 1411 0 28 -23 57 -45 57 -7 0 -23 -12 -34 -26z"/>
<path d="M12455 3060 c-227 -36 -453 -167 -591 -343 -67 -86 -137 -227 -166
-332 -31 -116 -31 -328 -1 -440 62 -227 195 -408 399 -542 49 -32 106 -70 125
-84 234 -172 642 -474 748 -553 74 -56 146 -110 161 -121 69 -49 98 -136 61
-185 -11 -16 -21 -33 -21 -37 0 -13 -95 -72 -175 -109 -133 -61 -221 -79 -395
-79 -178 0 -264 18 -407 85 -106 50 -162 88 -252 174 -117 113 -200 252 -238
401 -15 57 -22 71 -40 73 -36 5 -43 -25 -23 -98 115 -431 545 -734 1004 -707
376 22 675 210 832 522 74 149 97 258 92 441 l-3 132 -48 95 c-26 52 -72 124
-102 160 -60 73 -68 79 -485 402 -162 126 -421 327 -575 446 -154 119 -291
229 -304 243 -20 21 -24 37 -25 83 -1 88 33 137 130 193 159 91 305 126 490
117 136 -6 229 -29 342 -84 73 -36 99 -37 110 -5 10 30 -117 94 -266 133 -89
24 -284 33 -377 19z"/>
</g>
</svg>
